<svg xmlns="http://www.w3.org/2000/svg" width="61.012" height="55.887" viewBox="0 0 61.012 55.887">
  <path id="Subtraction_1" data-name="Subtraction 1" d="M111.106-78.113H71.918A15.892,15.892,0,0,1,56-93.943V-118.17a15.684,15.684,0,0,1,4.66-11.2A15.86,15.86,0,0,1,71.918-134h29.175a15.86,15.86,0,0,1,11.258,4.634,15.684,15.684,0,0,1,4.66,11.2v14.1a21.322,21.322,0,0,1-1.724,7.933c-1.263,2.859-2.923,4.434-4.674,4.434h-8.862c-.019-.061-1.965-6.188-5.1-9.217l-.38-.367c-2.846-2.754-3.705-3.585-7.783-3.618-.258,0-.5,0-.738,0-3.576,0-4.584.309-8.109,3.852A28.34,28.34,0,0,0,74-91.747l-7.229.046a.354.354,0,0,1,.02-.046c.673-1.457,4.24-9.109,8.424-16.677a105.163,105.163,0,0,1,7.156-11.5c2.581-3.468,4.631-5.226,6.092-5.226h.026c1.993.029,4.27,2.258,6.77,6.624a90.766,90.766,0,0,1,4.8,10.245c.4.977.693,1.682.839,1.947.034.09,3.447,8.955,5.963,8.955,2.457,0,3.742-4.445,3.742-6.828l.015-13.995a9.474,9.474,0,0,0-9.49-9.437H71.918a9.474,9.474,0,0,0-9.49,9.437v24.258a9.474,9.474,0,0,0,9.49,9.436h39.188v6.393ZM88.058-119c-1.282,0-3.035,2.085-4.147,3.87-1.2,1.93-2.192,4.328-1.7,5.337.476.969,2.833,1.314,4.88,1.314,2.4,0,5.348-.484,6.15-1.545.552-.731.3-2.336-.676-4.294C91.422-116.619,89.422-119,88.058-119Z" transform="translate(-56 134)" fill="#ffb633"/>
</svg>
